<svg width="20" height="20" viewBox="0 0 20 20" fill="none" xmlns="http://www.w3.org/2000/svg">
<path d="M13.7411 2.0752C13.5753 2.0754 13.4135 2.125 13.2761 2.21766C13.1387 2.31031 13.0321 2.44182 12.9698 2.59538C12.9075 2.74894 12.8924 2.91758 12.9264 3.07976C12.9605 3.24193 13.0421 3.39029 13.1608 3.50586L15.0716 5.41667L2.91667 5.41667C2.80625 5.41511 2.69661 5.43551 2.59414 5.47668C2.49166 5.51786 2.3984 5.579 2.31976 5.65653C2.24111 5.73407 2.17867 5.82646 2.13604 5.92835C2.09342 6.03023 2.07147 6.13956 2.07147 6.25C2.07147 6.36044 2.09342 6.46977 2.13604 6.57166C2.17867 6.67354 2.24111 6.76593 2.31976 6.84347C2.3984 6.921 2.49166 6.98214 2.59414 7.02332C2.69661 7.0645 2.80625 7.0849 2.91667 7.08333L15.0716 7.08333L13.1608 8.99414C13.0808 9.07093 13.017 9.1629 12.973 9.26468C12.929 9.36645 12.9058 9.47598 12.9046 9.58685C12.9035 9.69771 12.9245 9.80769 12.9664 9.91034C13.0083 10.013 13.0703 10.1062 13.1487 10.1846C13.2271 10.263 13.3204 10.325 13.423 10.3669C13.5256 10.4088 13.6356 10.4298 13.7465 10.4287C13.8574 10.4276 13.9669 10.4043 14.0687 10.3603C14.1704 10.3164 14.2624 10.2525 14.3392 10.1725L17.6725 6.83919C17.8288 6.68291 17.9165 6.47098 17.9165 6.25C17.9165 6.02902 17.8288 5.81709 17.6725 5.66081L14.3392 2.32747C14.2614 2.24755 14.1684 2.18404 14.0657 2.1407C13.963 2.09737 13.8526 2.07509 13.7411 2.0752ZM6.23373 9.5752C6.01723 9.58165 5.81175 9.67213 5.66082 9.82747L2.32748 13.1608C2.17126 13.3171 2.0835 13.529 2.0835 13.75C2.0835 13.971 2.17126 14.1829 2.32748 14.3392L5.66082 17.6725C5.7376 17.7525 5.82958 17.8164 5.93135 17.8603C6.03312 17.9043 6.14265 17.9276 6.25352 17.9287C6.36439 17.9298 6.47437 17.9088 6.57701 17.8669C6.67966 17.825 6.77292 17.763 6.85132 17.6846C6.92972 17.6062 6.99168 17.513 7.03359 17.4103C7.0755 17.3077 7.0965 17.1977 7.09538 17.0868C7.09425 16.976 7.07101 16.8665 7.02702 16.7647C6.98303 16.6629 6.91918 16.5709 6.8392 16.4941L4.92839 14.5833L17.0833 14.5833C17.1938 14.5849 17.3034 14.5645 17.4059 14.5233C17.5083 14.4821 17.6016 14.421 17.6803 14.3435C17.7589 14.2659 17.8213 14.1735 17.864 14.0717C17.9066 13.9698 17.9285 13.8604 17.9285 13.75C17.9285 13.6396 17.9066 13.5302 17.864 13.4283C17.8213 13.3265 17.7589 13.2341 17.6803 13.1565C17.6016 13.079 17.5083 13.0179 17.4059 12.9767C17.3034 12.9355 17.1938 12.9151 17.0833 12.9167L4.92839 12.9167L6.8392 11.0059C6.95962 10.8888 7.04187 10.7381 7.07517 10.5735C7.10847 10.4089 7.09126 10.2381 7.02581 10.0834C6.96036 9.92878 6.84971 9.7975 6.70837 9.70681C6.56703 9.61612 6.40159 9.57025 6.23373 9.5752Z" fill="white"/>
</svg>
