<svg width="40" height="40" viewBox="0 0 40 40" fill="none" xmlns="http://www.w3.org/2000/svg">
<path d="M36.6666 20C36.6666 29.2034 29.2033 36.6667 20 36.6667C10.7966 36.6667 3.33331 29.2034 3.33331 20C3.33331 10.7967 10.7966 3.33337 20 3.33337C29.2033 3.33337 36.6666 10.7967 36.6666 20Z" fill="#FFC107"/>
<path d="M14.1667 28.3333V11.6666H20.9992C23.0075 11.6666 24.5275 12.0541 25.5659 12.8291C26.6042 13.6041 27.1217 14.74 27.1217 16.2341C27.1217 17.0508 26.9134 17.7708 26.5 18.3925C26.0834 19.0141 25.5042 19.47 24.7617 19.76C25.6084 19.975 26.275 20.4041 26.7634 21.0558C27.2525 21.7025 27.5 22.4933 27.5 23.4341C27.5 25.0358 26.9925 26.25 25.9767 27.0733C24.9609 27.8966 23.5159 28.3166 21.6375 28.3333H14.1667ZM17.5 18.3333H21.1359C22.855 18.3041 23.7175 17.6466 23.7175 16.2958C23.7175 15.5408 23.4992 14.9966 23.0634 14.665C22.6275 14.3333 21.94 14.1666 20.9992 14.1666H17.5V18.3333ZM17.5 20.8333V25.8333H21.5367C22.3375 25.8333 24.1667 25.4425 24.1667 23.6591C24.1667 21.8758 23.2359 20.8558 21.6667 20.8333H17.5Z" fill="#FFF8E1"/>
<path d="M16.6667 9.16663H19.1667V13.3333H16.6667V9.16663ZM20.8334 9.16663H23.3334V13.3333H20.8334V9.16663ZM16.6667 26.6666H19.1667V30.8333H16.6667V26.6666ZM20.8334 26.6666H23.3334V30.8333H20.8334V26.6666Z" fill="#FFF8E1"/>
</svg>
