<svg width="40" height="40" viewBox="0 0 40 40" fill="none" xmlns="http://www.w3.org/2000/svg">
<path d="M36.6666 20C36.6666 29.2034 29.2033 36.6667 20 36.6667C10.7966 36.6667 3.33331 29.2034 3.33331 20C3.33331 10.7967 10.7966 3.33337 20 3.33337C29.2033 3.33337 36.6666 10.7967 36.6666 20Z" fill="#4CAF50"/>
<path d="M22.415 24.3292C22.415 23.6584 22.2359 23.1284 21.8775 22.7309C21.5192 22.3334 20.9109 21.9659 20.0517 21.6309C19.1925 21.2959 17.2559 20.2084 16.4125 19.4242C15.9567 19.0009 15.6184 18.4867 15.3709 17.9075C15.1234 17.3242 15 16.6342 15 15.8334C15 14.4534 15.4134 13.255 16.1717 12.2917C17.2134 10.9634 19.1667 10.8334 19.1667 10.8334V8.33337H20.8334V10.8334C21.8034 10.8334 23.7209 11.1559 24.85 12.8842C25.8467 14.4109 25.8334 16.6667 25.8334 16.6667H22.5C22.5 15.6834 22.305 14.9834 21.9175 14.4984C21.5234 14.01 20.9217 13.7659 20.2675 13.7659C19.62 13.7659 19.2192 14.0459 18.8675 14.4267C18.5125 14.8084 18.3334 15.3317 18.3334 16.0025C18.3334 16.6242 18.5059 17.1259 18.8542 17.5C19.1992 17.8742 19.7425 18.1742 20.6867 18.5642C21.6275 18.9584 22.4025 19.3259 23.0075 19.6742C23.6159 20.0225 24.1275 20.4167 24.5442 20.8525C24.9642 21.2884 25.2834 21.79 25.5042 22.3467C25.7225 22.91 25.8334 23.5609 25.8334 24.3067C25.8334 25.6967 25.4167 26.8259 24.58 27.6925C23.7434 28.5592 22.2984 29.0692 20.8334 29.225V31.6667H19.1667V29.2384C17.5517 29.0559 16.3834 28.4634 15.4984 27.4509C14.6092 26.4417 14.1667 25.01 14.1667 23.3334H17.5C17.5 24.3067 17.7217 25.1434 18.1675 25.6609C18.6134 26.1817 19.1634 26.4425 20 26.4425C20.6934 26.4425 21.4125 26.2509 21.8167 25.8725C22.2167 25.4884 22.415 24.9775 22.415 24.3292Z" fill="white"/>
</svg>
