<svg width="30" height="31" viewBox="0 0 30 31" fill="none" xmlns="http://www.w3.org/2000/svg">
<path d="M25 9.25H13.75" stroke="white" stroke-width="1.5" stroke-linecap="round" stroke-linejoin="round"/>
<path d="M17.5 21.75H6.25" stroke="white" stroke-width="1.5" stroke-linecap="round" stroke-linejoin="round"/>
<path d="M21.25 25.5C23.3211 25.5 25 23.8211 25 21.75C25 19.6789 23.3211 18 21.25 18C19.1789 18 17.5 19.6789 17.5 21.75C17.5 23.8211 19.1789 25.5 21.25 25.5Z" stroke="white" stroke-width="1.5" stroke-linecap="round" stroke-linejoin="round"/>
<path d="M8.75 13C10.8211 13 12.5 11.3211 12.5 9.25C12.5 7.17893 10.8211 5.5 8.75 5.5C6.67893 5.5 5 7.17893 5 9.25C5 11.3211 6.67893 13 8.75 13Z" stroke="white" stroke-width="1.5" stroke-linecap="round" stroke-linejoin="round"/>
</svg>
