<svg width="134" height="134" viewBox="0 0 134 134" fill="none" xmlns="http://www.w3.org/2000/svg">
<g filter="url(#filter0_d_4_551)">
<rect x="30.7273" y="30.7273" width="72.5455" height="72.5455" rx="36.2727" fill="#1FC7D4" shape-rendering="crispEdges"/>
<path d="M47.9805 58.0214C47.981 58.4191 48.1001 58.8077 48.3224 59.1374C48.5448 59.4671 48.8604 59.723 49.229 59.8725C49.5975 60.022 50.0023 60.0582 50.3915 59.9765C50.7807 59.8949 51.1367 59.699 51.4141 59.414L56.0001 54.8281L56.0001 84C55.9963 84.265 56.0453 84.5281 56.1441 84.774C56.2429 85.02 56.3897 85.2438 56.5757 85.4326C56.7618 85.6213 56.9836 85.7712 57.2281 85.8735C57.4726 85.9758 57.735 86.0284 58.0001 86.0284C58.2651 86.0284 58.5275 85.9758 58.772 85.8735C59.0165 85.7712 59.2383 85.6213 59.4244 85.4326C59.6105 85.2438 59.7572 85.02 59.856 84.774C59.9548 84.5281 60.0038 84.265 60.0001 84L60.0001 54.8281L64.586 59.414C64.7703 59.606 64.991 59.7592 65.2353 59.8648C65.4795 59.9704 65.7424 60.0261 66.0085 60.0288C66.2746 60.0315 66.5385 59.9811 66.7849 59.8806C67.0312 59.78 67.255 59.6313 67.4432 59.4431C67.6314 59.2549 67.7801 59.0311 67.8807 58.7848C67.9812 58.5384 68.0317 58.2745 68.0289 58.0084C68.0262 57.7423 67.9705 57.4794 67.8649 57.2352C67.7593 56.9909 67.6061 56.7702 67.4141 56.5859L59.4141 48.5859C59.039 48.211 58.5304 48.0003 58.0001 48.0003C57.4697 48.0003 56.9611 48.211 56.586 48.5859L48.586 56.5859C48.3942 56.7725 48.2417 56.9957 48.1377 57.2423C48.0337 57.4889 47.9803 57.7538 47.9805 58.0214ZM65.9805 76.039C65.996 76.5586 66.2132 77.0518 66.586 77.414L74.586 85.414C74.9611 85.7889 75.4697 85.9996 76.0001 85.9996C76.5304 85.9996 77.039 85.7889 77.4141 85.414L85.4141 77.414C85.6061 77.2297 85.7593 77.009 85.8649 76.7647C85.9705 76.5205 86.0262 76.2576 86.0289 75.9915C86.0317 75.7254 85.9812 75.4615 85.8807 75.2151C85.7801 74.9688 85.6314 74.745 85.4432 74.5568C85.255 74.3687 85.0312 74.2199 84.7849 74.1194C84.5385 74.0188 84.2746 73.9684 84.0085 73.9711C83.7424 73.9738 83.4795 74.0296 83.2353 74.1351C82.991 74.2407 82.7703 74.3939 82.586 74.5859L78.0001 79.1718L78.0001 50C78.0038 49.7349 77.9548 49.4718 77.856 49.2259C77.7572 48.9799 77.6105 48.7561 77.4244 48.5674C77.2383 48.3786 77.0165 48.2287 76.772 48.1264C76.5275 48.0241 76.2651 47.9715 76.0001 47.9715C75.735 47.9715 75.4726 48.0241 75.2281 48.1264C74.9836 48.2287 74.7618 48.3786 74.5757 48.5674C74.3897 48.7561 74.2429 48.9799 74.1441 49.2259C74.0453 49.4718 73.9963 49.7349 74.0001 50L74.0001 79.1718L69.4141 74.5859C69.1332 74.2969 68.7715 74.0995 68.3765 74.0196C67.9814 73.9397 67.5715 73.9809 67.2003 74.138C66.8291 74.2951 66.5141 74.5607 66.2964 74.8999C66.0788 75.2391 65.9686 75.6362 65.9805 76.039Z" fill="white"/>
</g>
<defs>
<filter id="filter0_d_4_551" x="0.727325" y="0.727295" width="132.545" height="132.545" filterUnits="userSpaceOnUse" color-interpolation-filters="sRGB">
<feFlood flood-opacity="0" result="BackgroundImageFix"/>
<feColorMatrix in="SourceAlpha" type="matrix" values="0 0 0 0 0 0 0 0 0 0 0 0 0 0 0 0 0 0 127 0" result="hardAlpha"/>
<feOffset/>
<feGaussianBlur stdDeviation="15"/>
<feComposite in2="hardAlpha" operator="out"/>
<feColorMatrix type="matrix" values="0 0 0 0 0.121569 0 0 0 0 0.780392 0 0 0 0 0.831373 0 0 0 0.5 0"/>
<feBlend mode="normal" in2="BackgroundImageFix" result="effect1_dropShadow_4_551"/>
<feBlend mode="normal" in="SourceGraphic" in2="effect1_dropShadow_4_551" result="shape"/>
</filter>
</defs>
</svg>
