<svg width="44" height="44" viewBox="0 0 44 44" fill="none" xmlns="http://www.w3.org/2000/svg">
<rect width="44" height="44" rx="17" fill="white"/>
<path d="M14.0645 15.3155V22.9691C14.0645 24.2518 15.1043 25.2917 16.387 25.2917H26.7062C27.9889 25.2917 29.0288 24.2518 29.0288 22.9691V17.6381C29.0288 16.3553 27.9889 15.3155 26.7062 15.3155H14.0645ZM14.0645 15.3155L23.15 13.0441C24.6159 12.6776 26.0359 13.8045 26.0359 15.3155" stroke="#9A9AB0" stroke-width="1.16129" stroke-linecap="round"/>
<path d="M26.0347 21.301C26.5857 21.301 27.0323 20.8544 27.0323 20.3034C27.0323 19.7524 26.5857 19.3058 26.0347 19.3058C25.4838 19.3058 25.0371 19.7524 25.0371 20.3034C25.0371 20.8544 25.4838 21.301 26.0347 21.301Z" fill="#9A9AB0"/>
<path d="M10.7734 19.2903V23.9355C10.7734 26.501 12.8531 28.5807 15.4186 28.5807H32.6444" stroke="#9A9AB0" stroke-width="1.16129" stroke-linecap="round"/>
<path d="M10.7734 17.3548V16.1935" stroke="#9A9AB0" stroke-width="1.16129" stroke-linecap="round"/>
<path d="M10.7734 14.2581V13.0968" stroke="#9A9AB0" stroke-width="1.16129" stroke-linecap="round"/>
<path d="M31.4082 26.7635L32.6779 28.0332C32.9802 28.3355 32.9802 28.8258 32.6779 29.1281L31.4082 30.3978" stroke="#9A9AB0" stroke-width="1.16129" stroke-linecap="round"/>
</svg>
